<?xml version="1.0" encoding="iso-8859-1"?>
<!-- Uploaded to: SVG Repo, www.svgrepo.com, Generator: SVG Repo Mixer Tools -->
<svg fill="#000000" height="800px" width="800px" version="1.1" id="Layer_1" xmlns="http://www.w3.org/2000/svg" xmlns:xlink="http://www.w3.org/1999/xlink" 
	 viewBox="0 0 512 512" xml:space="preserve">
<g>
	<g>
		<path d="M489.565,58.641l-36.164-36.164C438.902,7.979,419.634,0,399.137,0s-39.765,7.979-54.255,22.468L48.818,318.524
			c-4.796,4.796-7.492,11.298-7.492,18.082v72.328c0,2.167,0.717,4.181,1.246,6.246L7.491,450.253
			c-9.984,9.993-9.984,26.18,0,36.164l18.082,18.082C30.574,509.5,37.11,512,43.664,512c6.545,0,13.09-2.5,18.082-7.492
			l35.081-35.072c2.057,0.529,4.079,1.246,6.246,1.246h72.337c6.784,0,13.286-2.697,18.082-7.492l296.073-296.047
			C519.474,137.225,519.474,88.55,489.565,58.641z M43.664,486.426l-18.082-18.082l32.282-32.282l18.082,18.082L43.664,486.426z
			 M103.065,445.107L66.9,408.943v-67.695l103.868,103.859H103.065z M471.483,149.052L191.171,429.346L82.661,320.845L362.973,40.55
			c9.984-9.984,23.074-14.985,36.164-14.985s26.18,4.992,36.173,14.985l36.164,36.164C491.451,96.7,491.451,129.084,471.483,149.052
			z"/>
	</g>
</g>
<g>
	<g>
		<path d="M410.111,120.004l-18.082-18.082c-4.992-4.992-11.537-7.492-18.082-7.492s-13.09,2.5-18.082,7.492L229.264,228.497
			c-9.984,9.993-9.984,26.18,0,36.164l18.082,18.082c4.992,4.992,11.537,7.492,18.082,7.492c6.545,0,13.09-2.5,18.082-7.492
			l126.601-126.575C420.095,146.176,420.095,129.988,410.111,120.004z M265.437,264.661l-18.082-18.082l126.592-126.583
			l18.082,18.082L265.437,264.661z"/>
	</g>
</g>
</svg>