<?xml version="1.0" encoding="iso-8859-1"?>
<!-- Uploaded to: SVG Repo, www.svgrepo.com, Generator: SVG Repo Mixer Tools -->
<svg fill="#000000" height="800px" width="800px" version="1.1" id="Layer_1" xmlns="http://www.w3.org/2000/svg" xmlns:xlink="http://www.w3.org/1999/xlink" 
	 viewBox="0 0 512 512" xml:space="preserve">
<g>
	<g>
		<path d="M339.478,133.565V83.478c0-9.22-7.475-16.696-16.696-16.696h-16.696V16.696c0-9.22-7.475-16.696-16.696-16.696h-66.783
			c-9.22,0-16.696,7.475-16.696,16.696v50.087h-16.696c-9.22,0-16.696,7.475-16.696,16.696v50.087
			c-36.824,0-66.783,29.959-66.783,66.783v261.565c0,27.618,22.469,50.087,50.087,50.087h200.348
			c27.618,0,50.087-22.469,50.087-50.087V200.348C406.261,163.524,376.302,133.565,339.478,133.565z M239.304,33.391h33.391v33.391
			h-33.391V33.391z M205.913,100.174h100.174v33.391H205.913V100.174z M372.87,461.913c0,9.206-7.49,16.696-16.696,16.696H155.826
			c-9.206,0-16.696-7.49-16.696-16.696V233.739H372.87V461.913z M139.13,200.348c0-18.412,14.979-33.391,33.391-33.391h16.696
			h133.565h16.696c18.412,0,33.391,14.979,33.391,33.391H139.13z"/>
	</g>
</g>
<g>
	<g>
		<path d="M309.959,321.003l-40.981-50.641c-3.17-3.917-7.939-6.192-12.978-6.192s-9.809,2.276-12.978,6.192l-40.981,50.641
			c-22.408,27.689-20.312,67.564,4.875,92.752c13.532,13.532,31.308,20.299,49.084,20.299s35.552-6.766,49.084-20.299
			C330.271,388.567,332.367,348.692,309.959,321.003z M281.473,390.145c-14.047,14.043-36.902,14.044-50.946,0
			c-13.072-13.072-14.159-33.765-2.53-48.135L256,307.406l28.003,34.605C295.632,356.38,294.544,377.072,281.473,390.145z"/>
	</g>
</g>
</svg>