<?xml version="1.0" encoding="utf-8"?><!-- Uploaded to: SVG Repo, www.svgrepo.com, Generator: SVG Repo Mixer Tools -->
<svg version="1.1" id="Uploaded to svgrepo.com" xmlns="http://www.w3.org/2000/svg" xmlns:xlink="http://www.w3.org/1999/xlink" 
	 width="800px" height="800px" viewBox="0 0 32 32" xml:space="preserve">
<style type="text/css">
	.sharpcorners_een{fill:#111918;}
	.st0{fill:#111918;}
</style>
<path class="sharpcorners_een" d="M4,4h2v2H4V4z M8,6h4V4H8V6z M14,6h4V4h-4V6z M20,6h4V4h-4V6z M26,4v2h2V4H26z M8,28h4v-2H8V28z
	 M14,28h4v-2h-4V28z M20,28h4v-2h-4V28z M26,12h2V8h-2V12z M26,18h2v-4h-2V18z M26,24h2v-4h-2V24z M26,28h2v-2h-2V28z M4,12h2V8H4
	V12z M4,18h2v-4H4V18z M4,24h2v-4H4V24z M4,28h2v-2H4V28z"/>
</svg>