<?xml version="1.0" encoding="utf-8"?><!-- Uploaded to: SVG Repo, www.svgrepo.com, Generator: SVG Repo Mixer Tools -->
<svg fill="#000000" width="800px" height="800px" viewBox="0 0 24 24" id="font-5" data-name="Flat Color" xmlns="http://www.w3.org/2000/svg" class="icon flat-color"><path id="primary" d="M21,20h-.32L13.93,2.64A1,1,0,0,0,13,2H11a1,1,0,0,0-.93.64L3.32,20H3a1,1,0,0,0,0,2H6a1,1,0,0,0,0-2H5.46L7,16h9l1.56,4H17a1,1,0,0,0,0,2h4a1,1,0,0,0,0-2ZM7.79,14,11.5,4.47,15.21,14Z" style="fill: rgb(0, 0, 0);"></path></svg>